# This file uses inches as units for non-parametric coordinates.

mtllib letter_2.mtl
g default
v -39.369999 -20.193001 0.600000
v -19.684999 -20.193001 0.600000
v 0.000000 -20.193001 0.600000
v 19.684999 -20.193001 0.600000
v 39.369999 -20.193001 0.600000
v -39.369999 -12.913863 0.600000
v -19.684999 -12.913863 0.600000
v 0.000000 -12.913863 0.600000
v 19.684999 -12.913863 0.600000
v 39.369999 -12.913863 0.600000
v -39.369999 -3.448116 0.600000
v -19.684999 -3.448116 0.600000
v 19.684999 -3.448116 0.600000
v 39.369999 -3.448116 0.600000
v -39.369999 8.204242 0.600000
v 39.369999 8.204242 0.600000
v -39.369999 20.193001 -1.016000
v -19.684999 20.193001 -1.016000
v 0.000000 20.193001 -1.016000
v 19.684999 20.193001 -1.016000
v 39.369999 20.193001 -1.016000
v -39.369999 8.204242 -1.016000
v -19.684999 6.946934 -1.016000
v 0.000000 8.204242 -1.016000
v 19.684999 6.946934 -1.016000
v 39.369999 8.204242 -1.016000
v -39.369999 -3.448116 -1.016000
v -19.684999 -3.448116 -1.016000
v 0.000000 -3.448116 -1.016000
v 19.684999 -3.448116 -1.016000
v 39.369999 -3.448116 -1.016000
v -39.369999 -12.913863 -1.432000
v -19.684999 -12.913863 -1.432000
v 0.000000 -12.913863 -1.016000
v 19.684999 -12.913863 -1.016000
v 39.369999 -12.913863 -1.016000
v -39.369999 -20.193001 -1.432000
v -19.684999 -20.193001 -1.432000
v 0.000000 -20.193001 -1.016000
v 19.684999 -20.193001 -1.016000
v 39.369999 -20.193001 -1.016000
v 19.684999 6.946934 0.600000
v 0.000000 -3.448116 0.600000
v 39.369999 20.193001 -0.254025
v 19.684999 20.193001 0.161975
v 0.000000 20.193001 0.161975
v -19.684999 20.193001 0.161975
v -39.369999 20.193001 -0.254025
v -19.684999 6.946934 0.600000
v 0.000000 8.320882 -0.040336
v -19.684999 6.946934 -0.247429
v 0.000000 -3.448116 -0.247429
v 19.684999 6.946934 -0.247429
v -29.527500 6.946934 0.600000
v -29.527500 -3.448116 0.600000
v -29.527500 -12.913863 0.600000
v -29.527500 -20.193001 0.600000
v -29.527500 -20.193001 -1.432000
v -29.527500 -12.913863 -1.432000
v -29.527500 -3.448116 -1.016000
v -29.527500 6.946934 -1.016000
v -29.527500 20.193001 -1.016000
v -29.527500 20.193001 -0.046025
v 29.527500 6.946934 0.600000
v 29.527500 -3.448116 0.600000
v 29.527500 -12.913863 0.600000
v 29.527500 -20.193001 0.600000
v 29.527500 -20.193001 -1.016000
v 29.527500 -12.913863 -1.016000
v 29.527500 -3.448116 -1.016000
v 29.527500 6.946934 -1.016000
v 29.527500 20.193001 -1.016000
v 29.527500 20.193001 -0.046025
v -32.753586 14.198622 -0.250727
v -32.753586 14.198622 0.172988
v 32.753586 14.198622 -0.250727
v 32.753586 14.198622 0.172988
vt 0.182154 0.000000
vt 0.192527 0.000000
vt 0.192527 0.046724
vt 0.182154 0.046724
vt 0.192527 0.107483
vt 0.182154 0.107483
vt 0.192527 0.182278
vt 0.182154 0.182278
vt 0.192527 0.259233
vt 0.187635 0.259233
vt 0.166974 0.000000
vt 0.180017 0.000000
vt 0.180017 0.046724
vt 0.166974 0.046724
vt 0.180017 0.107483
vt 0.169644 0.107483
vt 0.180017 0.182278
vt 0.169644 0.182278
vt 0.174535 0.259233
vt 0.169644 0.259233
vt 0.262576 0.891549
vt 0.256350 0.891549
vt 0.255015 0.828371
vt 0.262576 0.828371
vt 0.257685 0.954727
vt 0.262576 0.954727
vt 0.255015 0.702016
vt 0.262576 0.702016
vt 0.255015 0.575660
vt 0.262576 0.575660
vt 0.256350 0.512483
vt 0.262576 0.512483
vt 0.257685 0.449305
vt 0.262576 0.449305
vt 0.252879 0.873931
vt 0.239836 0.873931
vt 0.239836 0.810754
vt 0.252879 0.810754
vt 0.239836 0.937109
vt 0.252879 0.937109
vt 0.242506 0.684398
vt 0.252879 0.684398
vt 0.242506 0.558043
vt 0.252879 0.558043
vt 0.242506 0.494865
vt 0.252879 0.494865
vt 0.242506 0.431687
vt 0.252879 0.431687
vt 0.264123 0.839886
vt 0.264123 0.713530
vt 0.269562 0.713530
vt 0.269562 0.839886
vt 0.264123 0.587175
vt 0.269562 0.587175
vt 0.269583 0.923771
vt 0.266864 0.923771
vt 0.266864 0.503289
vt 0.269583 0.503289
vt 0.269605 0.966241
vt 0.269605 0.460819
vt 0.763195 0.442244
vt 0.716471 0.442244
vt 0.716471 0.379066
vt 0.763195 0.379066
vt 0.716471 0.505422
vt 0.763195 0.505422
vt 0.716471 0.252711
vt 0.763195 0.252711
vt 0.823954 0.442244
vt 0.823954 0.379066
vt 0.823954 0.505422
vt 0.716471 0.126355
vt 0.763195 0.126355
vt 0.823954 0.252711
vt 0.890679 0.442244
vt 0.890679 0.379066
vt 0.898749 0.505422
vt 0.716471 0.063178
vt 0.763195 0.063178
vt 0.823954 0.126355
vt 0.937226 0.462952
vt 0.975704 0.505422
vt 0.716471 0.000000
vt 0.763195 0.000000
vt 0.823954 0.063178
vt 0.890679 0.126355
vt 0.823954 0.000000
vt 0.890679 0.063178
vt 0.898749 0.000000
vt 0.937226 0.042470
vt 0.975704 0.000000
vt 0.540409 0.442244
vt 0.455384 0.442244
vt 0.455384 0.379066
vt 0.540409 0.379066
vt 0.455384 0.505422
vt 0.532338 0.505422
vt 0.455384 0.252711
vt 0.532338 0.252711
vt 0.607133 0.442244
vt 0.607133 0.379066
vt 0.607133 0.505422
vt 0.455384 0.126355
vt 0.540409 0.126355
vt 0.607133 0.252711
vt 0.667893 0.442244
vt 0.667893 0.379066
vt 0.667893 0.505422
vt 0.455384 0.063178
vt 0.540409 0.063178
vt 0.607133 0.126355
vt 0.667893 0.252711
vt 0.714617 0.442244
vt 0.714617 0.379066
vt 0.714617 0.505422
vt 0.455384 0.000000
vt 0.532338 0.000000
vt 0.607133 0.063178
vt 0.667893 0.126355
vt 0.714617 0.252711
vt 0.607133 0.000000
vt 0.667893 0.063178
vt 0.714617 0.126355
vt 0.667893 0.000000
vt 0.714617 0.063178
vt 0.714617 0.000000
vt 0.163585 0.655020
vt 0.154765 0.781376
vt 0.088041 0.655020
vt 0.239790 0.655020
vt 0.239790 0.781376
vt 0.154765 0.528665
vt 0.239790 0.844554
vt 0.201313 0.865261
vt 0.239790 0.528665
vt 0.239790 0.907731
vt 0.201313 0.444779
vt 0.239790 0.465487
vt 0.239790 0.402309
vn 0.000000 0.000000 1.000000
vn 0.000000 0.000000 1.000000
vn 0.000000 0.000000 1.000000
vn 0.000000 0.000000 1.000000
vn 0.000000 0.000000 1.000000
vn 0.000000 0.000000 1.000000
vn 0.000000 0.000000 1.000000
vn 0.000000 0.000000 1.000000
vn 0.000000 0.000000 1.000000
vn 0.000000 0.000000 1.000000
vn 0.000000 0.000000 1.000000
vn 0.000000 0.000000 1.000000
vn 0.000000 0.000000 1.000000
vn 0.000000 0.000000 1.000000
vn 0.000000 0.000000 1.000000
vn 0.000000 0.000000 1.000000
vn 0.000000 0.000000 1.000000
vn 0.000000 0.000000 1.000000
vn 0.000561 0.018798 0.999823
vn 0.000000 0.003678 0.999993
vn 0.000000 0.003678 0.999993
vn -0.000561 0.018798 0.999823
vn -0.001620 0.029738 0.999557
vn 0.003276 0.066190 0.997802
vn -0.003276 0.066190 0.997802
vn -0.003653 0.067043 0.997743
vn 0.000000 1.000000 0.000000
vn 0.000000 1.000000 0.000000
vn 0.000000 1.000000 0.000000
vn 0.000000 1.000000 0.000000
vn 0.000000 1.000000 0.000000
vn 0.000000 1.000000 0.000000
vn 0.000000 1.000000 0.000000
vn 0.000000 1.000000 0.000000
vn 0.000000 1.000000 0.000000
vn 0.000000 1.000000 0.000000
vn 0.000000 1.000000 0.000000
vn 0.000000 1.000000 0.000000
vn 0.000000 0.000000 -1.000000
vn 0.000000 0.000000 -1.000000
vn 0.000000 0.000000 -1.000000
vn 0.000000 0.000000 -1.000000
vn 0.000000 0.000000 -1.000000
vn 0.000000 0.000000 -1.000000
vn -0.000000 0.000000 -1.000000
vn -0.000000 0.000000 -1.000000
vn 0.000000 0.000000 -1.000000
vn 0.000000 0.000000 -1.000000
vn 0.000000 0.000000 -1.000000
vn 0.000000 0.000000 -1.000000
vn 0.000000 0.020941 -0.999781
vn 0.003288 0.013674 -0.999901
vn 0.002441 0.005076 -0.999984
vn 0.000000 0.000000 -1.000000
vn 0.000000 0.000000 -1.000000
vn 0.000000 0.000000 -1.000000
vn 0.000000 0.024836 -0.999692
vn 0.010104 0.016558 -0.999812
vn 0.007580 0.006211 -0.999952
vn 0.000000 0.000000 -1.000000
vn 0.000000 0.000000 -1.000000
vn 0.000000 0.000000 -1.000000
vn 0.000000 0.000000 -1.000000
vn 0.014087 0.000000 -0.999901
vn 0.010566 0.000000 -0.999944
vn 0.000000 0.000000 -1.000000
vn 0.000000 0.000000 -1.000000
vn 0.000000 0.000000 -1.000000
vn 0.000000 -1.000000 0.000000
vn 0.000000 -1.000000 0.000000
vn 0.000000 -1.000000 0.000000
vn 0.000000 -1.000000 0.000000
vn 0.000000 -1.000000 0.000000
vn 0.000000 -1.000000 0.000000
vn 0.000000 -1.000000 0.000000
vn 0.000000 -1.000000 0.000000
vn 0.000000 -1.000000 0.000000
vn 0.000000 -1.000000 0.000000
vn 0.000000 -1.000000 0.000000
vn 0.000000 -1.000000 0.000000
vn 1.000000 -0.000000 0.000000
vn 1.000000 -0.000000 0.000000
vn 1.000000 0.000000 0.000000
vn 1.000000 0.000000 0.000000
vn 1.000000 0.000000 0.000000
vn 1.000000 0.000000 0.000000
vn 1.000000 -0.000000 0.000000
vn 1.000000 -0.000000 0.000000
vn 1.000000 0.000000 0.000000
vn 1.000000 0.000000 0.000000
vn -1.000000 -0.000001 0.000000
vn -1.000000 -0.000001 0.000000
vn -1.000000 -0.000000 0.000000
vn -1.000000 -0.000000 0.000000
vn -1.000000 -0.000000 0.000000
vn -1.000000 -0.000000 0.000000
vn -1.000000 -0.000000 0.000000
vn -1.000000 -0.000000 0.000000
vn -1.000000 0.000000 0.000000
vn -1.000000 0.000000 0.000000
vn -0.005873 -0.022320 0.999734
vn -0.005130 -0.023348 0.999714
vn -0.009290 -0.017593 0.999802
vn -0.018340 -0.028824 0.999416
vn -0.018666 -0.028115 0.999430
vn -0.018829 -0.027759 0.999437
vn -0.018340 -0.028824 0.999416
vn 0.009290 -0.017593 0.999802
vn 0.005130 -0.023348 0.999714
vn 0.005873 -0.022320 0.999734
vn 0.018666 -0.028115 0.999430
vn 0.018829 -0.027759 0.999437
vn 0.021123 -0.022765 0.999518
vn 0.004409 -0.024346 0.999694
vn 0.004409 -0.024346 0.999694
vn -0.004409 -0.024346 0.999694
vn -0.004409 -0.024346 0.999694
vn 0.466960 0.884278 0.000000
vn 0.466960 0.884278 0.000000
vn 0.466960 0.884278 0.000000
vn 0.466960 0.884278 0.000000
vn 0.518017 0.855370 0.000000
vn 0.516700 0.856166 0.000000
vn 0.485201 0.874403 0.000000
vn 0.485201 0.874403 0.000000
vn -0.466960 0.884278 0.000000
vn -0.466960 0.884278 0.000000
vn -0.466960 0.884278 0.000000
vn -0.466960 0.884278 0.000000
vn -0.518018 0.855370 0.000000
vn -0.516701 0.856166 0.000000
vn -0.671412 0.741084 0.000000
vn -0.000000 0.000000 1.000000
vn -0.000000 0.000000 1.000000
vn 0.001620 0.029738 0.999557
vn 0.000000 0.000000 1.000000
vn 0.000000 0.000000 1.000000
vn 0.000000 0.000000 1.000000
vn 0.000000 0.000000 1.000000
vn 0.000000 -1.000000 0.000000
vn 0.000000 -1.000000 0.000000
vn 0.000000 -1.000000 0.000000
vn 0.000000 -1.000000 0.000000
vn 0.000000 0.024836 -0.999692
vn 0.000000 0.024836 -0.999692
vn 0.000000 0.000000 -1.000000
vn 0.000000 0.000000 -1.000000
vn 0.000000 0.020299 -0.999794
vn 0.000000 0.020299 -0.999794
vn -0.000000 0.000000 -1.000000
vn -0.000000 0.000000 -1.000000
vn -0.000000 0.000000 -1.000000
vn -0.000000 0.000000 -1.000000
vn 0.000000 1.000000 0.000000
vn 0.000000 1.000000 0.000000
vn 0.000000 1.000000 0.000000
vn 0.000000 1.000000 0.000000
vn 0.000000 0.000000 1.000000
vn 0.000000 0.000000 1.000000
vn 0.000000 0.000000 1.000000
vn 0.000000 -1.000000 0.000000
vn 0.000000 -1.000000 0.000000
vn 0.000000 0.000000 -1.000000
vn 0.000000 0.000000 -1.000000
vn 0.000000 0.000000 -1.000000
vn 0.000000 0.000000 -1.000000
vn 0.000000 0.000000 -1.000000
vn 0.000000 1.000000 0.000000
vn 0.000000 1.000000 0.000000
vn -0.021123 -0.022765 0.999518
vn 0.671412 0.741084 0.000000
vn 0.003653 0.067043 0.997743
vn 0.018340 -0.028824 0.999416
vn 0.018340 -0.028824 0.999416
vn -0.485201 0.874403 0.000000
vn -0.485201 0.874403 0.000000
s 1
g bottom_envelope letter
usemtl initialShadingGroup
f 56/61/1 57/62/2 2/63/3 7/64/4
f 2/63/3 3/67/5 8/68/6 7/64/4
f 3/67/5 4/72/7 9/73/8 8/68/6
f 66/79/9 67/78/10 5/83/11 10/84/12
f 55/69/13 56/61/1 7/64/4 12/70/14
f 7/64/4 8/68/6 43/74/15 12/70/14
f 8/68/6 9/73/8 13/80/16 43/74/15
f 65/85/17 66/79/9 10/84/12 14/87/18
f 54/75/19 55/69/13 12/70/14 49/76/20
f 12/70/14 43/74/15 49/76/20
f 43/74/15 13/80/16 42/86/21
f 64/88/22 65/85/17 14/87/18 16/89/23
f 75/81/24 54/75/19 49/76/20
f 77/90/25 64/88/22 16/89/23 44/91/26
s 3
f 62/21/27 63/22/28 47/23/29 18/24/30
f 47/23/29 46/27/31 19/28/32 18/24/30
f 46/27/31 45/29/33 20/30/34 19/28/32
s off
f 72/32/35 73/31/36 44/33/37 21/34/38
s 4
f 61/92/39 62/93/40 18/94/41 23/95/42
f 18/94/41 19/98/43 24/99/44 23/95/42
f 19/98/43 20/103/45 25/104/46 24/99/44
s 5
f 71/110/47 72/109/48 21/116/49 26/117/50
s 4
f 60/100/51 61/92/39 23/95/42 28/101/52
f 23/95/42 24/99/44 29/105/53 28/101/52
f 24/99/44 25/104/46 30/111/54 29/105/53
s 5
f 70/118/55 71/110/47 26/117/50 31/121/56
s 4
f 59/106/57 60/100/51 28/101/52 33/107/58
f 28/101/52 29/105/53 34/112/59 33/107/58
f 29/105/53 30/111/54 35/119/60 34/112/59
s 5
f 69/122/61 70/118/55 31/121/56 36/124/62
s 4
f 58/113/63 59/106/57 33/107/58 38/114/64
f 33/107/58 34/112/59 39/120/65 38/114/64
f 34/112/59 35/119/60 40/123/66 39/120/65
s 5
f 68/125/67 69/122/61 36/124/62 41/126/68
s 6
f 57/35/69 58/36/70 38/37/71 2/38/72
f 38/37/71 39/41/73 3/42/74 2/38/72
f 39/41/73 40/43/75 4/44/76 3/42/74
s off
f 67/46/77 68/45/78 41/47/79 5/48/80
s 7
f 5/1/81 41/2/82 36/3/83 10/4/84
f 10/4/84 36/3/83 31/5/85 14/6/86
f 14/6/86 31/5/85 26/7/87 16/8/88
f 16/8/88 26/7/87 21/9/89 44/10/90
s 8
f 37/11/91 1/12/92 6/13/93 32/14/94
f 32/14/94 6/13/93 11/15/95 27/16/96
f 27/16/96 11/15/95 15/17/97 22/18/98
f 22/18/98 15/17/97 48/19/99 17/20/100
s 9
f 50/127/101 51/128/102 52/129/103
s 10
f 47/131/104 63/133/105 74/134/106 51/128/107
s 11
f 52/129/108 53/132/109 50/127/110
s 12
f 73/138/111 76/137/112 44/139/113
s 11
f 50/127/110 53/132/109 45/135/114 46/130/115
s 9
f 46/130/116 47/131/117 51/128/102 50/127/101
s off
f 49/49/118 43/50/119 52/51/120 51/52/121
s 13
f 74/55/122 75/56/123 49/49/124 51/52/125
s off
f 43/50/126 42/53/127 53/54/128 52/51/129
s 14
f 76/58/130 77/57/131 44/60/132
s 1
f 11/71/133 55/69/134 54/75/19 15/77/135
f 6/66/136 56/61/137 55/69/134 11/71/133
f 1/65/138 57/62/139 56/61/137 6/66/136
s off
f 37/39/140 58/36/141 57/35/142 1/40/143
s 16
f 32/108/144 59/106/145 58/113/146 37/115/147
f 27/102/148 60/100/149 59/106/145 32/108/144
f 22/97/150 61/92/151 60/100/149 27/102/148
f 17/96/152 62/93/153 61/92/151 22/97/150
s off
f 48/25/154 63/22/155 62/21/156 17/26/157
s 1
f 13/80/16 65/85/158 64/88/22 42/86/21
f 9/73/8 66/79/159 65/85/158 13/80/16
f 4/72/7 67/78/160 66/79/159 9/73/8
s 6
f 40/43/75 68/45/161 67/46/162 4/44/76
s 4
f 35/119/60 69/122/163 68/125/164 40/123/66
f 30/111/54 70/118/165 69/122/163 35/119/60
f 25/104/46 71/110/166 70/118/165 30/111/54
f 20/103/45 72/109/167 71/110/166 25/104/46
s 3
f 45/29/33 73/31/168 72/32/169 20/30/34
s 10
f 74/134/106 63/133/105 48/136/170
s 13
f 48/59/171 75/56/123 74/55/122
s 1
f 15/77/135 54/75/19 75/81/24 48/82/172
s 12
f 53/132/173 76/137/112 73/138/111 45/135/174
s 14
f 42/53/175 77/57/131 76/58/130 53/54/176
s 1
f 42/86/21 64/88/22 77/90/25
g default
v 0.000000 -3.443033 0.419472
v -19.684999 6.728419 0.097012
v 19.684999 6.728419 0.097012
v -39.369999 20.188841 -0.241745
v -19.684999 20.200480 0.174092
v 0.000000 20.200480 0.174092
v 19.684999 20.200480 0.174092
v 39.369999 20.188841 -0.241745
v -19.684999 6.758352 1.166797
v 0.000000 8.234699 1.163353
v 0.000000 20.218773 0.828040
v -19.684999 20.218773 0.828041
v 19.684999 6.758352 1.166797
v 19.684999 20.218773 0.828041
v 39.369999 20.218773 0.828041
v 0.000000 -3.413097 1.489258
v -39.369999 20.218773 0.828041
v -29.527500 20.194660 -0.033826
v -33.956627 14.594281 -0.075015
v -33.956627 14.624213 0.994770
v -29.527500 20.218773 0.828041
v 29.527500 20.194660 -0.033826
v 33.956627 14.594281 -0.075015
v 33.956627 14.624213 0.994770
v 29.527500 20.218773 0.828041
vt 0.995997 0.378858
vt 0.995997 0.568286
vt 0.989701 0.568286
vt 0.989701 0.378858
vt 0.997998 0.663001
vt 0.989701 0.663001
vt 0.995997 0.189429
vt 0.989701 0.189429
vt 1.000000 0.757715
vt 0.989701 0.757715
vt 0.989701 0.094714
vt 0.997998 0.094714
vt 1.000000 0.000000
vt 0.989701 0.000000
vt 0.977558 0.189429
vt 0.978020 0.052093
vt 0.988319 0.052093
vt 0.987856 0.189429
vt 0.977922 0.000000
vt 0.988221 0.000000
vt 0.977922 0.378858
vt 0.988221 0.378858
vt 0.977558 0.568286
vt 0.987856 0.568286
vt 0.988319 0.705622
vt 0.978020 0.705622
vt 0.977922 0.757715
vt 0.988221 0.757715
vt 0.325620 0.568286
vt 0.339823 0.378858
vt 0.455191 0.378858
vt 0.455191 0.568286
vt 0.227692 0.378858
vt 0.325620 0.189429
vt 0.455191 0.189429
vt 0.455191 0.663001
vt 0.401330 0.705622
vt 0.401330 0.052093
vt 0.455191 0.094714
vt 0.455191 0.757715
vt 0.455191 0.000000
vt 0.000000 0.568286
vt 0.000000 0.378858
vt 0.227499 0.378858
vt 0.129570 0.568286
vt 0.000000 0.189429
vt 0.129570 0.189429
vt 0.053860 0.705622
vt 0.000000 0.663001
vt 0.000000 0.094714
vt 0.053860 0.052093
vt 0.000000 0.757715
vt 0.000000 0.000000
vn -0.000482 0.026580 0.999647
vn 0.000000 0.026919 0.999638
vn 0.000000 0.026482 0.999649
vn -0.000140 0.026386 0.999652
vn 0.000482 0.026580 0.999647
vn 0.000140 0.026386 0.999652
vn -0.001412 0.026190 0.999656
vn -0.001412 0.026190 0.999656
vn 0.000000 0.027969 0.999609
vn 0.000000 0.029789 0.999556
vn 0.000000 0.029789 0.999556
vn 0.000000 0.029789 0.999556
vn 0.000000 0.999609 -0.027963
vn -0.000000 0.999609 -0.027963
vn -0.000000 0.999609 -0.027963
vn 0.000000 0.999609 -0.027963
vn 0.000000 0.999609 -0.027963
vn 0.000000 0.999609 -0.027963
vn 0.469245 -0.882723 0.024699
vn 0.482776 -0.875401 0.024494
vn 0.482776 -0.875401 0.024494
vn 0.469254 -0.882718 0.024699
vn 0.000000 0.999609 -0.027963
vn 0.000000 0.999609 -0.027963
vn 0.459231 -0.887970 0.024847
vn 0.459230 -0.887970 0.024847
vn -0.469245 -0.882723 0.024699
vn -0.459231 -0.887970 0.024847
vn -0.459230 -0.887970 0.024847
vn -0.469254 -0.882718 0.024699
vn -0.718802 -0.694943 0.019444
vn -0.718802 -0.694943 0.019444
vn -0.718802 -0.694943 0.019444
vn -0.718802 -0.694943 0.019444
vn -0.000000 0.999609 -0.027968
vn -0.000000 0.999609 -0.027968
vn -0.000000 0.999609 -0.027968
vn -0.000000 0.999609 -0.027968
vn 0.007019 -0.004534 -0.999965
vn 0.007019 -0.004534 -0.999965
vn 0.007019 -0.004534 -0.999965
vn 0.007019 -0.004534 -0.999965
vn 0.021124 -0.009354 -0.999733
vn 0.021124 -0.009354 -0.999733
vn 0.021124 -0.009354 -0.999733
vn -0.007019 -0.004534 -0.999965
vn -0.007019 -0.004534 -0.999965
vn -0.007019 -0.004534 -0.999965
vn -0.007019 -0.004534 -0.999965
vn -0.016524 0.002363 -0.999861
vn -0.016524 0.002363 -0.999861
vn -0.016524 0.002363 -0.999861
vn -0.016524 0.002363 -0.999861
vn 0.016524 0.002363 -0.999861
vn 0.016524 0.002363 -0.999861
vn 0.016524 0.002363 -0.999861
vn 0.016524 0.002363 -0.999861
vn -0.482776 -0.875401 0.024494
vn -0.482776 -0.875401 0.024494
vn 0.001412 0.026190 0.999656
vn 0.001412 0.026190 0.999656
vn -0.000000 0.999609 -0.027963
vn -0.000000 0.999609 -0.027963
vn -0.021124 -0.009354 -0.999733
vn -0.021124 -0.009354 -0.999733
vn -0.021124 -0.009354 -0.999733
vn 0.718802 -0.694943 0.019444
vn 0.718802 -0.694943 0.019444
vn 0.718802 -0.694943 0.019444
vn 0.718802 -0.694943 0.019444
vn 0.000000 0.029789 0.999556
vn 0.000000 0.029789 0.999556
vn 0.000000 0.029789 0.999556
vn 0.000000 0.999609 -0.027968
vn 0.000000 0.999609 -0.027968
vn 0.000000 0.999609 -0.027968
vn 0.000000 0.999609 -0.027968
s 1
g letter top_envelope
usemtl initialShadingGroup
f 86/168/177 87/169/178 88/170/179 89/171/180
f 87/169/178 90/173/181 91/174/182 88/170/179
f 90/173/181 101/177/183 102/178/184 91/174/182
f 93/172/185 90/173/181 87/169/178
f 86/168/177 93/172/185 87/169/178
s off
f 94/179/186 97/176/187 98/175/188
s 2
f 83/140/189 82/141/190 89/142/191 88/143/192
f 84/146/193 83/140/189 88/143/192 91/147/194
s 3
f 80/154/195 100/155/196 101/156/197 90/157/198
s 2
f 102/150/199 99/151/200 84/146/193 91/147/194
s 3
f 78/160/201 80/154/195 90/157/198 93/161/202
s 4
f 79/162/203 78/160/204 93/161/205 86/163/206
s off
f 81/166/207 96/165/208 97/164/209 94/167/210
f 98/145/211 95/144/212 81/148/213 94/149/214
f 82/181/215 83/182/216 78/183/217 79/184/218
f 95/188/219 96/187/220 81/191/221
f 83/182/222 84/185/223 80/186/224 78/183/225
f 99/189/226 100/190/227 80/186/228 84/185/229
f 82/181/230 79/184/231 96/187/232 95/188/233
s 4
f 97/164/234 96/165/235 79/162/203 86/163/206
s 1
f 98/175/236 97/176/237 86/168/177 89/171/180
s 2
f 82/141/190 95/144/238 98/145/239 89/142/191
s off
f 85/192/240 100/190/241 99/189/242
f 101/156/243 100/155/244 85/158/245 92/159/246
f 102/178/247 101/177/248 92/180/249
f 85/152/250 99/151/251 102/150/252 92/153/253
